<svg width="15" height="23" viewBox="0 0 15 23" fill="none" xmlns="http://www.w3.org/2000/svg">
<path d="M3.18336 10.5081C2.85876 10.6288 2.89662 10.2195 3.0471 10.0048C3.72864 9.03252 4.96099 8.25219 7.12134 7.41002C9.28168 6.56786 10.5235 6.51546 12.9385 5.35127C15.3534 4.18707 15.6581 1.53787 13.6089 0.525743C11.5598 -0.486381 8.81513 0.180117 6.93645 0.83264C5.05777 1.48516 2.71066 3.09701 1.56503 4.58084C0.419399 6.06467 0.0854361 7.14991 0.0196524 8.0077C-0.0461313 8.86548 0.382203 9.90133 0.560241 10.252C0.711505 10.5499 1.15968 11.4274 1.34229 11.6993C1.52491 11.9713 1.75067 12.2108 2.1164 12.2834C2.8357 12.4261 3.21367 12.1802 3.36876 12.1272C3.52386 12.0742 4.97409 11.2522 6.16832 10.79C7.36255 10.3277 8.63154 10.0901 8.57509 10.2012C8.51403 10.3214 6.72781 11.1489 6.07069 11.6079C5.54271 11.9767 3.2779 13.1774 2.52744 15.735C2.03901 17.3996 2.07063 19.8097 3.76463 21.2513C5.45864 22.6928 7.50956 22.5916 9.44557 22.2218C11.5415 21.8214 12.8641 20.9573 13.616 20.3014C14.2234 19.7716 15.5892 18.1136 14.6764 16.0641C13.8019 14.1006 11.6712 13.9766 10.7904 13.9766C9.90957 13.9766 8.46869 14.0951 6.72767 14.667C6.15303 14.8557 5.76148 14.7287 5.93513 14.3313C6.10877 13.9339 6.7281 13.3365 7.33838 12.9147C7.94865 12.4928 9.46783 11.3826 10.2346 10.8492C11.0013 10.3159 11.2632 10.1485 11.4555 9.79719C11.6478 9.44594 11.5775 8.75652 11.0594 8.43147C10.5413 8.10641 9.56782 8.16853 8.38005 8.47311C7.19229 8.77769 5.87268 9.29666 5.19812 9.58591C4.66375 9.81505 3.62228 10.3448 3.18336 10.5081Z" fill="white"/>
</svg>
