<svg width="159" height="159" viewBox="0 0 159 159" fill="none" xmlns="http://www.w3.org/2000/svg">
<circle cx="79.5" cy="79.5" r="79.5" fill="white"/>
<path d="M57.77 77.2265C56.4573 77.7269 56.6103 76.0301 57.2188 75.1403C59.9749 71.1101 64.9585 67.8756 73.6949 64.385C82.4314 60.8944 87.4536 60.6773 97.2196 55.8519C106.986 51.0264 108.217 40.0448 99.9302 35.849C91.6432 31.6532 80.5436 34.4155 72.9462 37.1201C65.3488 39.8247 55.8571 46.5058 51.2244 52.6564C46.5916 58.8071 45.2412 63.3056 44.9753 66.8614C44.7094 70.4171 46.4418 74.711 47.1618 76.1645C47.7736 77.3994 49.5862 81.0369 50.3247 82.1644C51.0633 83.2919 51.9763 84.2845 53.4554 84.5854C56.3643 85.1772 57.8928 84.1579 58.52 83.9383C59.1472 83.7186 65.0119 80.3115 69.8414 78.3955C74.6709 76.4796 79.8027 75.4949 79.5745 75.9555C79.3275 76.4537 72.1041 79.8834 69.4467 81.7859C67.3116 83.3146 58.1527 88.2915 55.1182 98.8935C53.1432 105.794 53.2715 115.784 60.1224 121.76C66.9733 127.736 75.2673 127.317 83.0967 125.784C91.5726 124.125 96.9211 120.543 99.9619 117.824C102.418 115.628 107.941 108.755 104.249 100.259C100.713 92.12 92.0961 91.6057 88.5339 91.6057C84.9718 91.6057 79.1448 92.0967 72.1041 94.4668C69.7802 95.2491 68.1967 94.7226 68.8989 93.0753C69.6011 91.428 72.1056 88.9518 74.5735 87.2031C77.0415 85.4545 83.185 80.8528 86.2856 78.6419C89.3861 76.431 90.4452 75.7371 91.2228 74.2811C92.0005 72.8251 91.7161 69.9673 89.6208 68.6198C87.5255 67.2722 83.5888 67.5296 78.7854 68.792C73.9821 70.0543 68.6456 72.2054 65.9177 73.4043C63.7566 74.354 59.5449 76.5499 57.77 77.2265Z" fill="#FF2442"/>
</svg>
