<svg width="34" height="34" viewBox="0 0 34 34" fill="none" xmlns="http://www.w3.org/2000/svg">
<path d="M16.9935 34C7.70058 34 0 26.2994 0 16.9935C0 7.70058 7.68752 0 16.9804 0C26.2864 0 34 7.70058 34 16.9935C34 26.2994 26.2994 34 16.9935 34ZM16.9935 16.5367C19.4342 16.5497 21.405 14.4614 21.405 11.7075C21.405 9.13628 19.4342 6.99578 16.9935 6.99578C14.5528 6.99578 12.582 9.13628 12.582 11.7075C12.582 14.4614 14.5528 16.5236 16.9935 16.5367ZM9.03186 25.7904H24.9551C25.5946 25.7904 25.8687 25.3858 25.8687 24.8115C25.8687 22.919 23.0365 17.9463 16.9935 17.9463C10.9635 17.9463 8.11823 22.919 8.11823 24.8115C8.11823 25.3858 8.40537 25.7904 9.03186 25.7904Z" fill="#88888A" fill-opacity="0.5"/>
</svg>
