<svg width="16" height="24" viewBox="0 0 16 24" fill="none" xmlns="http://www.w3.org/2000/svg">
<path d="M3.68336 11.2737C3.35876 11.3944 3.39662 10.9851 3.5471 10.7704C4.22864 9.79815 5.46099 9.01781 7.62134 8.17565C9.78168 7.33349 11.0235 7.28108 13.4385 6.11689C15.8534 4.9527 16.1581 2.30349 14.1089 1.29137C12.0598 0.279244 9.31513 0.945742 7.43645 1.59827C5.55777 2.25079 3.21066 3.86264 2.06503 5.34646C0.919399 6.83029 0.585436 7.91553 0.519652 8.77332C0.453869 9.63111 0.882203 10.667 1.06024 11.0176C1.2115 11.3155 1.65968 12.193 1.84229 12.465C2.02491 12.737 2.25067 12.9764 2.6164 13.049C3.3357 13.1917 3.71367 12.9458 3.86876 12.8928C4.02386 12.8398 5.47409 12.0178 6.66832 11.5556C7.86255 11.0933 9.13154 10.8558 9.07509 10.9669C9.01403 11.087 7.22781 11.9145 6.57069 12.3735C6.04271 12.7423 3.7779 13.943 3.02744 16.5007C2.53901 18.1653 2.57063 20.5754 4.26463 22.0169C5.95864 23.4584 8.00956 23.3573 9.94557 22.9874C12.0415 22.5871 13.3641 21.7229 14.116 21.067C14.7234 20.5372 16.0892 18.8792 15.1764 16.8297C14.3019 14.8662 12.1712 14.7422 11.2904 14.7422C10.4096 14.7423 8.96869 14.8608 7.22767 15.4326C6.65303 15.6214 6.26148 15.4944 6.43513 15.0969C6.60877 14.6995 7.2281 14.1022 7.83838 13.6803C8.44865 13.2584 9.96783 12.1483 10.7346 11.6149C11.5013 11.0815 11.7632 10.9141 11.9555 10.5628C12.1478 10.2116 12.0775 9.52215 11.5594 9.19709C11.0413 8.87203 10.0678 8.93416 8.88005 9.23874C7.69229 9.54332 6.37268 10.0623 5.69812 10.3515C5.16375 10.5807 4.12228 11.1104 3.68336 11.2737Z" fill="#FF2442"/>
</svg>
