<svg width="104" height="36" viewBox="0 0 104 36" fill="none" xmlns="http://www.w3.org/2000/svg">
<path d="M84.9194 16.8363C84.4059 17.0297 84.4658 16.3739 84.7038 16.0299C85.7819 14.4722 87.7314 13.2219 91.1489 11.8727C94.5664 10.5235 96.5309 10.4396 100.351 8.57443C104.171 6.70925 104.653 2.46457 101.411 0.84277C98.1698 -0.779034 93.8279 0.288694 90.856 1.33408C87.884 2.37947 84.1711 4.96191 82.3589 7.33931C80.5467 9.7167 80.0184 11.4555 79.9144 12.8299C79.8104 14.2043 80.4881 15.864 80.7697 16.4258C81.009 16.9031 81.7181 18.3091 82.007 18.7449C82.2959 19.1808 82.653 19.5644 83.2316 19.6807C84.3695 19.9095 84.9674 19.5155 85.2128 19.4306C85.4581 19.3457 87.7523 18.0287 89.6415 17.2882C91.5306 16.5476 93.5381 16.167 93.4488 16.345C93.3522 16.5376 90.5266 17.8633 89.4871 18.5987C88.6518 19.1895 85.0691 21.1132 83.8821 25.2112C83.1095 27.8783 83.1597 31.7399 85.8396 34.0497C88.5195 36.3595 91.764 36.1975 94.8266 35.6051C98.1422 34.9637 100.234 33.5792 101.424 32.5283C102.385 31.6795 104.545 29.023 103.101 25.7391C101.718 22.593 98.347 22.3943 96.9536 22.3943C95.5601 22.3943 93.2807 22.584 90.5266 23.5002C89.6175 23.8026 88.9981 23.5991 89.2728 22.9623C89.5474 22.3256 90.5272 21.3685 91.4926 20.6926C92.458 20.0167 94.8612 18.238 96.074 17.3834C97.2869 16.5288 97.7012 16.2606 98.0054 15.6978C98.3096 15.135 98.1984 14.0304 97.3787 13.5096C96.5591 12.9887 95.0191 13.0882 93.1402 13.5761C91.2612 14.0641 89.1737 14.8955 88.1066 15.3589C87.2612 15.726 85.6137 16.5748 84.9194 16.8363Z" fill="#FF2442"/>
<path fill-rule="evenodd" clip-rule="evenodd" d="M0 34.532H5.0094V21.9571H9.28911C10.9426 21.9571 12.294 21.5271 13.698 20.664C15.0988 19.8028 16.2448 18.5678 17.1316 16.9407C18.0081 15.3324 18.4566 13.4126 18.4566 11.164C18.4566 8.13189 17.5963 5.79107 15.9268 4.08047L15.9251 4.07876L15.9235 4.07703C14.2897 2.37149 12.2145 1.4963 9.28911 1.4963H0.097342L0 34.532ZM5.0094 17.056V6.35516L9.28572 6.29957H9.28911C10.6403 6.29957 11.5794 6.75771 12.3846 7.70467C13.1705 8.62907 13.5454 9.79628 13.5454 11.164C13.5454 12.8461 13.1275 14.2686 12.2497 15.3894C11.4127 16.4676 10.5359 17.056 9.28911 17.056H5.0094ZM21.275 1.4963H26.2356L26.1856 29.5331H36.6361V34.532H21.2262L21.275 1.4963ZM21.2261 34.8012L21.2259 34.7989C21.2259 34.8017 21.2261 34.8028 21.2261 34.8028L21.2261 34.8012ZM52.7553 34.532H57.6469L51.855 1.4963H45.1142L39.079 34.532H43.968L44.55 30.7155H52.1732L52.7553 34.532ZM45.3794 26.4994L47.7016 12.1727L47.8983 10.3753L48.9204 10.3485L49.2175 12.1589L49.2182 12.1629L51.3354 26.4994H45.3794ZM74.831 1.4963L66.1314 14.5259V1.4963H61.2195L61.122 34.532H66.0819V23.0034L68.4046 19.3973L75.4386 34.532H80.8837L71.4091 14.6522L79.7555 1.4963H74.831ZM66.1314 1.22945L66.1313 1.2262C66.1313 1.2262 66.1311 1.22686 66.1314 1.22945Z" fill="#161618"/>
<path d="M74.831 1.4963L66.1314 14.5259V1.4963H61.2195L61.122 34.532H66.0819V23.0034L68.4046 19.3973L75.4386 34.532H80.8837L71.4091 14.6522L79.7555 1.4963H74.831Z" fill="#161618"/>
<path d="M66.1314 1.22945L66.1313 1.2262C66.1313 1.2262 66.1311 1.22686 66.1314 1.22945Z" fill="#161618"/>
</svg>
