<svg width="15" height="22" viewBox="0 0 15 22" fill="none" xmlns="http://www.w3.org/2000/svg">
<path d="M3.94515 10.3202C3.64146 10.4331 3.67688 10.0502 3.81766 9.84932C4.45532 8.93966 5.60831 8.20957 7.62953 7.42165C9.65075 6.63372 10.8126 6.58469 13.0721 5.49547C15.3315 4.40625 15.6165 1.92764 13.6993 0.9807C11.7822 0.0337554 9.21425 0.657332 7.45655 1.26783C5.69885 1.87834 3.5029 3.38638 2.43104 4.77465C1.35919 6.16293 1.04673 7.17828 0.985184 7.98083C0.923636 8.78337 1.32439 9.75251 1.49096 10.0806C1.63248 10.3593 2.0518 11.1803 2.22265 11.4347C2.3935 11.6892 2.60473 11.9133 2.94691 11.9812C3.61989 12.1147 3.97351 11.8846 4.11862 11.835C4.26372 11.7855 5.62056 11.0164 6.73789 10.5839C7.85521 10.1514 9.04248 9.92915 8.98966 10.0331C8.93253 10.1455 7.26135 10.9197 6.64654 11.3492C6.15257 11.6942 4.0336 12.8176 3.33147 15.2105C2.8745 16.7679 2.90408 19.0228 4.489 20.3715C6.07391 21.7202 7.99275 21.6256 9.80409 21.2796C11.765 20.905 13.0024 20.0965 13.706 19.4828C14.2742 18.9871 15.552 17.4359 14.698 15.5184C13.8799 13.6813 11.8864 13.5653 11.0623 13.5653C10.2382 13.5654 8.89012 13.6762 7.26122 14.2113C6.72358 14.3879 6.35725 14.269 6.51971 13.8972C6.68217 13.5254 7.26162 12.9665 7.83259 12.5718C8.40357 12.1771 9.82491 11.1384 10.5423 10.6394C11.2596 10.1404 11.5046 9.98372 11.6845 9.65508C11.8645 9.32645 11.7987 8.68143 11.314 8.37731C10.8292 8.07318 9.91846 8.1313 8.80719 8.41627C7.69591 8.70123 6.46128 9.18678 5.83017 9.45741C5.33021 9.67179 4.3558 10.1674 3.94515 10.3202Z" fill="#161618"/>
</svg>
