<svg width="40" height="40" viewBox="0 0 40 40" fill="none" xmlns="http://www.w3.org/2000/svg">
<g filter="url(#filter0_d_788_4535)">
<circle cx="20" cy="19" r="17" fill="#E7E7E9"/>
</g>
<path d="M14.3281 25.4922C14.1771 25.3411 14.0755 25.1641 14.0234 24.9609C13.9766 24.7526 13.9792 24.5495 14.0312 24.3516C14.0833 24.1484 14.1797 23.9766 14.3203 23.8359L18.7812 19.3672L14.3203 14.9062C14.1797 14.7656 14.0833 14.5938 14.0312 14.3906C13.9844 14.1875 13.9844 13.9844 14.0312 13.7812C14.0833 13.5781 14.1823 13.401 14.3281 13.25C14.4792 13.0938 14.6562 12.9922 14.8594 12.9453C15.0677 12.8984 15.2734 12.8984 15.4766 12.9453C15.6797 12.9922 15.8542 13.0885 16 13.2344L20.4609 17.6875L24.9141 13.2344C25.0599 13.0885 25.2344 12.9922 25.4375 12.9453C25.6406 12.8932 25.8411 12.8932 26.0391 12.9453C26.2422 12.9974 26.4219 13.099 26.5781 13.25C26.7292 13.401 26.8307 13.5781 26.8828 13.7812C26.9349 13.9844 26.9349 14.1875 26.8828 14.3906C26.8359 14.5885 26.7396 14.763 26.5938 14.9141L22.1406 19.3672L26.5938 23.8281C26.7396 23.974 26.8359 24.1484 26.8828 24.3516C26.9297 24.5547 26.9271 24.7578 26.875 24.9609C26.8281 25.1641 26.7292 25.3411 26.5781 25.4922C26.4271 25.6432 26.25 25.7422 26.0469 25.7891C25.8438 25.8411 25.6406 25.8438 25.4375 25.7969C25.2344 25.75 25.0599 25.651 24.9141 25.5L20.4609 21.0469L16 25.5078C15.8542 25.6484 15.6797 25.7422 15.4766 25.7891C15.2786 25.8411 15.0755 25.8411 14.8672 25.7891C14.6641 25.7422 14.4844 25.6432 14.3281 25.4922Z" fill="#FF2442"/>
<defs>
<filter id="filter0_d_788_4535" x="0.666667" y="0.833333" width="38.6667" height="38.6667" filterUnits="userSpaceOnUse" color-interpolation-filters="sRGB">
<feFlood flood-opacity="0" result="BackgroundImageFix"/>
<feColorMatrix in="SourceAlpha" type="matrix" values="0 0 0 0 0 0 0 0 0 0 0 0 0 0 0 0 0 0 127 0" result="hardAlpha"/>
<feOffset dy="1.16667"/>
<feGaussianBlur stdDeviation="1.16667"/>
<feComposite in2="hardAlpha" operator="out"/>
<feColorMatrix type="matrix" values="0 0 0 0 0 0 0 0 0 0 0 0 0 0 0 0 0 0 0.2 0"/>
<feBlend mode="normal" in2="BackgroundImageFix" result="effect1_dropShadow_788_4535"/>
<feBlend mode="normal" in="SourceGraphic" in2="effect1_dropShadow_788_4535" result="shape"/>
</filter>
</defs>
</svg>
