<svg width="15" height="20" viewBox="0 0 15 20" fill="none" xmlns="http://www.w3.org/2000/svg">
<path d="M10.8242 5.34766C10.9961 5.34766 11.2891 5.375 11.7031 5.42969C12.1172 5.48438 12.5703 5.64062 13.0625 5.89844C13.5625 6.14844 14.0156 6.56641 14.4219 7.15234C14.3984 7.17578 14.2852 7.26172 14.082 7.41016C13.8789 7.55078 13.6523 7.76172 13.4023 8.04297C13.1523 8.31641 12.9336 8.66797 12.7461 9.09766C12.5586 9.51953 12.4648 10.0234 12.4648 10.6094C12.4648 11.2812 12.582 11.8516 12.8164 12.3203C13.0586 12.7891 13.3359 13.168 13.6484 13.457C13.9688 13.7383 14.25 13.9453 14.4922 14.0781C14.7422 14.2109 14.875 14.2812 14.8906 14.2891C14.8828 14.3203 14.7812 14.5977 14.5859 15.1211C14.3984 15.6445 14.0859 16.2266 13.6484 16.8672C13.2656 17.4219 12.8516 17.9336 12.4062 18.4023C11.9688 18.8711 11.4414 19.1055 10.8242 19.1055C10.4102 19.1055 10.0703 19.0469 9.80469 18.9297C9.53906 18.8047 9.26562 18.6836 8.98438 18.5664C8.70312 18.4414 8.32422 18.3789 7.84766 18.3789C7.38672 18.3789 7 18.4414 6.6875 18.5664C6.38281 18.6914 6.08984 18.8164 5.80859 18.9414C5.53516 19.0664 5.21094 19.1289 4.83594 19.1289C4.26562 19.1289 3.76562 18.9023 3.33594 18.4492C2.90625 17.9961 2.46484 17.4531 2.01172 16.8203C1.48828 16.0703 1.03906 15.1562 0.664062 14.0781C0.296875 12.9922 0.113281 11.8984 0.113281 10.7969C0.113281 9.61719 0.335938 8.62891 0.78125 7.83203C1.22656 7.02734 1.79688 6.42188 2.49219 6.01562C3.19531 5.60156 3.92188 5.39453 4.67188 5.39453C5.07031 5.39453 5.44531 5.46094 5.79688 5.59375C6.14844 5.71875 6.47656 5.84766 6.78125 5.98047C7.09375 6.11328 7.375 6.17969 7.625 6.17969C7.86719 6.17969 8.14844 6.10938 8.46875 5.96875C8.78906 5.82812 9.14844 5.69141 9.54688 5.55859C9.94531 5.41797 10.3711 5.34766 10.8242 5.34766ZM10.1797 3.85938C9.875 4.22656 9.49219 4.53516 9.03125 4.78516C8.57031 5.02734 8.13281 5.14844 7.71875 5.14844C7.63281 5.14844 7.55078 5.14062 7.47266 5.125C7.46484 5.10156 7.45703 5.05859 7.44922 4.99609C7.44141 4.93359 7.4375 4.86719 7.4375 4.79688C7.4375 4.32812 7.53906 3.875 7.74219 3.4375C7.94531 2.99219 8.17578 2.625 8.43359 2.33594C8.76172 1.94531 9.17578 1.62109 9.67578 1.36328C10.1758 1.10547 10.6523 0.96875 11.1055 0.953125C11.1289 1.05469 11.1406 1.17578 11.1406 1.31641C11.1406 1.78516 11.0508 2.24219 10.8711 2.6875C10.6914 3.125 10.4609 3.51563 10.1797 3.85938Z" fill="#161618"/>
</svg>
