<svg width="26" height="30" viewBox="0 0 26 30" fill="none" xmlns="http://www.w3.org/2000/svg">
<path d="M4.44534 14.0775C4.0431 14.2309 4.09 13.7109 4.27645 13.4383C5.12098 12.2033 6.64807 11.2122 9.32513 10.1426C12.0022 9.07297 13.5411 9.00646 16.5337 7.52782C19.5262 6.04918 19.9036 2.68416 17.3642 1.39846C14.8249 0.112756 11.4237 0.95921 9.0957 1.78796C6.76766 2.6167 3.85921 4.66396 2.43961 6.54867C1.02001 8.43337 0.60622 9.81183 0.524743 10.9014C0.443265 11.991 0.974108 13.3067 1.19475 13.7521C1.38221 14.1305 1.93764 15.2451 2.16394 15.5906C2.39025 15.9361 2.67003 16.2403 3.12325 16.3325C4.01461 16.5138 4.48298 16.2015 4.67517 16.1342C4.86736 16.0669 6.66445 15.0228 8.14432 14.4357C9.62419 13.8486 11.1967 13.5469 11.1268 13.6881C11.0511 13.8407 8.83765 14.8917 8.02337 15.4746C7.36912 15.9431 4.56262 17.4681 3.63277 20.7168C3.02759 22.8312 3.06689 25.8925 5.16618 27.7236C7.26546 29.5547 9.80695 29.4263 12.2061 28.9566C14.8033 28.4482 16.4422 27.3507 17.374 26.5175C18.1266 25.8446 19.819 23.7387 18.6878 21.1353C17.604 18.6412 14.9637 18.4836 13.8722 18.4836C12.7806 18.4836 10.9951 18.6341 8.83765 19.3604C8.12557 19.6001 7.64036 19.4388 7.85551 18.934C8.07067 18.4292 8.83812 17.6704 9.59436 17.1346C10.3506 16.5988 12.2331 15.1887 13.1832 14.5112C14.1333 13.8338 14.4578 13.6211 14.6961 13.175C14.9344 12.7288 14.8473 11.8531 14.2052 11.4402C13.5631 11.0273 12.3569 11.1062 10.885 11.493C9.41312 11.8798 7.77789 12.5389 6.94199 12.9063C6.2798 13.1973 4.98923 13.8702 4.44534 14.0775Z" fill="#FF2442"/>
<path fill-rule="evenodd" clip-rule="evenodd" d="M21.0547 25.0494L21.0547 22.2725L16.4768 22.2725C16.1113 22.2725 15.797 22.4031 15.5625 22.6726C15.328 22.938 15.2231 23.278 15.2231 23.6641C15.2231 24.0471 15.3285 24.3845 15.5625 24.6493C15.797 24.9188 16.1113 25.0494 16.4768 25.0494L21.0547 25.0494ZM15.5008 23.6641C15.5008 23.3289 15.5909 23.0594 15.7713 22.8557C15.9481 22.652 16.1833 22.5502 16.4768 22.5502L20.777 22.5502L20.777 22.5504L16.4784 22.5504C16.1849 22.5504 15.9497 22.6522 15.7729 22.8559C15.5926 23.0596 15.5024 23.3291 15.5024 23.6644C15.5024 23.9954 15.5926 24.2627 15.7729 24.4664C15.9171 24.6325 16.1001 24.7309 16.3218 24.7615C16.0993 24.7311 15.9158 24.6327 15.7713 24.4662C15.5909 24.2625 15.5008 23.9951 15.5008 23.6641Z" fill="white"/>
<path d="M16.8931 22.9807C16.7063 23.1527 16.613 23.3803 16.613 23.6634C16.613 23.943 16.7063 24.1688 16.8931 24.3408C17.0762 24.5128 17.3198 24.5988 17.6238 24.5988L19.9453 24.5988L19.9453 22.7227L17.6238 22.7227C17.3198 22.7227 17.0762 22.8087 16.8931 22.9807Z" fill="#FF2442"/>
<path d="M25.2307 24.3386C25.4097 24.1666 25.4992 23.939 25.4992 23.6559C25.4992 23.3764 25.4097 23.1506 25.2307 22.9785C25.0552 22.8065 24.8218 22.7205 24.5305 22.7205L19.9453 22.7205L19.9453 24.5967L24.5305 24.5967C24.8218 24.5967 25.0552 24.5107 25.2307 24.3386Z" fill="#FF2442"/>
<path d="M21.7381 19.4976C21.566 19.3108 21.3384 19.2174 21.0553 19.2174C20.7758 19.2174 20.55 19.3108 20.378 19.4976C20.2059 19.6807 20.1199 19.9243 20.1199 20.2283L20.1199 22.5498L21.9961 22.5498L21.9961 20.2283C21.9961 19.9243 21.9101 19.6807 21.7381 19.4976Z" fill="#FF2442"/>
<path d="M20.3772 27.8352C20.5492 28.0142 20.7768 28.1037 21.0599 28.1037C21.3395 28.1037 21.5652 28.0142 21.7373 27.8352C21.9093 27.6597 21.9953 27.4263 21.9953 27.135L21.9953 22.5498L20.1191 22.5498L20.1191 27.135C20.1191 27.4263 20.2052 27.6597 20.3772 27.8352Z" fill="#FF2442"/>
</svg>
