<svg width="38" height="38" viewBox="0 0 38 38" fill="none" xmlns="http://www.w3.org/2000/svg">
<g filter="url(#filter0_d_614_1203)">
<circle cx="19" cy="18" r="17" fill="#E7E7E9"/>
</g>
<path d="M11.6191 25.5537C11.4492 25.3838 11.335 25.1846 11.2764 24.9561C11.2236 24.7217 11.2266 24.4932 11.2852 24.2705C11.3438 24.042 11.4521 23.8486 11.6104 23.6904L16.6289 18.6631L11.6104 13.6445C11.4521 13.4863 11.3438 13.293 11.2852 13.0645C11.2324 12.8359 11.2324 12.6074 11.2852 12.3789C11.3438 12.1504 11.4551 11.9512 11.6191 11.7812C11.7891 11.6055 11.9883 11.4912 12.2168 11.4385C12.4512 11.3857 12.6826 11.3857 12.9111 11.4385C13.1396 11.4912 13.3359 11.5996 13.5 11.7637L18.5186 16.7734L23.5283 11.7637C23.6924 11.5996 23.8887 11.4912 24.1172 11.4385C24.3457 11.3799 24.5713 11.3799 24.7939 11.4385C25.0225 11.4971 25.2246 11.6113 25.4004 11.7812C25.5703 11.9512 25.6846 12.1504 25.7432 12.3789C25.8018 12.6074 25.8018 12.8359 25.7432 13.0645C25.6904 13.2871 25.582 13.4834 25.418 13.6533L20.4082 18.6631L25.418 23.6816C25.582 23.8457 25.6904 24.042 25.7432 24.2705C25.7959 24.499 25.793 24.7275 25.7344 24.9561C25.6816 25.1846 25.5703 25.3838 25.4004 25.5537C25.2305 25.7236 25.0312 25.835 24.8027 25.8877C24.5742 25.9463 24.3457 25.9492 24.1172 25.8965C23.8887 25.8438 23.6924 25.7324 23.5283 25.5625L18.5186 20.5527L13.5 25.5713C13.3359 25.7295 13.1396 25.835 12.9111 25.8877C12.6885 25.9463 12.46 25.9463 12.2256 25.8877C11.9971 25.835 11.7949 25.7236 11.6191 25.5537Z" fill="#FF2442"/>
<defs>
<filter id="filter0_d_614_1203" x="0" y="0" width="38" height="38" filterUnits="userSpaceOnUse" color-interpolation-filters="sRGB">
<feFlood flood-opacity="0" result="BackgroundImageFix"/>
<feColorMatrix in="SourceAlpha" type="matrix" values="0 0 0 0 0 0 0 0 0 0 0 0 0 0 0 0 0 0 127 0" result="hardAlpha"/>
<feOffset dy="1"/>
<feGaussianBlur stdDeviation="1"/>
<feComposite in2="hardAlpha" operator="out"/>
<feColorMatrix type="matrix" values="0 0 0 0 0 0 0 0 0 0 0 0 0 0 0 0 0 0 0.2 0"/>
<feBlend mode="normal" in2="BackgroundImageFix" result="effect1_dropShadow_614_1203"/>
<feBlend mode="normal" in="SourceGraphic" in2="effect1_dropShadow_614_1203" result="shape"/>
</filter>
</defs>
</svg>
