<svg width="19" height="34" viewBox="0 0 19 34" fill="none" xmlns="http://www.w3.org/2000/svg">
<path fill-rule="evenodd" clip-rule="evenodd" d="M8.5324 7.31582C8.53255 7.31576 8.5327 7.3157 8.53286 7.31564V9.71009C8.53286 10.026 8.6432 10.2791 8.8639 10.4694C8.87331 10.4776 8.88284 10.4857 8.89251 10.4936C8.88268 10.4856 8.87299 10.4774 8.86344 10.469C8.64274 10.2787 8.5324 10.0256 8.5324 9.70971V7.31582ZM8.23153 7.43765V9.70971C8.23153 10.1031 8.37304 10.4413 8.66508 10.6937C8.95263 10.9461 9.32092 11.059 9.73931 11.059C10.1542 11.059 10.5198 10.9455 10.8067 10.6937C11.0987 10.4413 11.2402 10.1031 11.2402 9.70971V6.50493C13.1291 6.08802 15.2299 5.97304 16.935 6.83057C19.4283 8.08453 19.0578 11.3665 16.1195 12.8086C14.3684 13.6681 13.1242 14.0384 11.8483 14.4181C10.9833 14.6755 10.1037 14.9373 9.04166 15.3588C6.41315 16.402 4.91374 17.3687 4.08453 18.5731C3.90146 18.8391 3.85541 19.3462 4.25035 19.1966C4.55669 19.0806 5.10426 18.8152 5.63824 18.5564C6.03513 18.3641 6.42452 18.1753 6.70174 18.0543C7.52247 17.696 9.12806 17.0531 10.5732 16.6759C12.0184 16.2986 13.2028 16.2217 13.8332 16.6244C14.4637 17.0271 14.5492 17.8812 14.3152 18.3164C14.0958 18.7244 13.802 18.9322 12.9969 19.5014C12.9435 19.5392 12.8878 19.5785 12.8298 19.6196C12.3567 19.9547 11.6482 20.4735 10.9678 20.9717C10.3066 21.4559 9.67198 21.9206 9.30601 22.1782C8.56349 22.7008 7.80995 23.4409 7.59869 23.9332C7.38744 24.4255 7.86385 24.5828 8.56303 24.349C10.6814 23.6407 12.4345 23.494 13.5062 23.494C14.578 23.494 17.1704 23.6477 18.2345 26.0802C19.3452 28.6193 17.6835 30.6732 16.9446 31.3295C16.0297 32.1421 14.4205 33.2125 11.8703 33.7084C9.51475 34.1665 7.01934 34.2917 4.95812 32.5058C2.8969 30.7199 2.85831 27.7341 3.45252 25.672C4.26704 22.8452 6.54812 21.3565 7.48686 20.7439C7.60035 20.6698 7.69422 20.6085 7.76351 20.5593C8.19135 20.255 9.01258 19.82 9.69505 19.4585C10.2879 19.1445 10.7761 18.886 10.8106 18.8168C10.8793 18.6791 9.3353 18.9734 7.88226 19.546C6.85687 19.9501 5.67637 20.5761 5.004 20.9326C4.72359 21.0813 4.53156 21.1832 4.47602 21.2025C4.44743 21.2124 4.41263 21.2279 4.3711 21.2463C4.13847 21.3494 3.69487 21.546 2.95224 21.3959C2.50724 21.306 2.23253 21.0093 2.01033 20.6723C1.78812 20.3354 1.24277 19.2483 1.05871 18.8792C0.842069 18.4448 0.320851 17.1616 0.400851 16.0989C0.480851 15.0362 0.887142 13.6918 2.281 11.8536C3.55817 10.1693 6.06268 8.35194 8.23153 7.43765Z" fill="#FF2442"/>
<path d="M9.73675 9.56349C9.43 9.56349 9.18343 9.46717 8.99705 9.27453C8.81067 9.08566 8.71748 8.83447 8.71748 8.52095V4.22683L8.82814 1.86411L9.39311 2.28906L7.91371 4.01152L6.61486 5.28071C6.52167 5.37136 6.41489 5.44691 6.29452 5.50735C6.17803 5.56778 6.04213 5.598 5.88681 5.598C5.615 5.598 5.38591 5.51112 5.19953 5.33737C5.01703 5.15983 4.92578 4.9313 4.92578 4.65178C4.92578 4.38359 5.03062 4.14751 5.2403 3.94353L8.99123 0.288966C9.08053 0.19831 9.19314 0.128429 9.32904 0.0793239C9.46494 0.0264413 9.60085 0 9.73675 0C9.87265 0 10.0086 0.0264413 10.1445 0.0793239C10.2804 0.128429 10.3949 0.19831 10.4881 0.288966L14.239 3.94353C14.4487 4.14751 14.5535 4.38359 14.5535 4.65178C14.5535 4.9313 14.4604 5.15983 14.274 5.33737C14.0915 5.51112 13.8643 5.598 13.5925 5.598C13.4372 5.598 13.2994 5.56778 13.179 5.50735C13.0625 5.44691 12.9577 5.37136 12.8645 5.28071L11.5598 4.01152L10.0804 2.28906L10.6454 1.86411L10.7502 4.22683V8.52095C10.7502 8.83447 10.657 9.08566 10.4706 9.27453C10.2842 9.46717 10.0396 9.56349 9.73675 9.56349Z" fill="#FF2442"/>
</svg>
